<?xml version="1.0" encoding="UTF-8" standalone="no"?>
<!-- Created with Inkscape (http://www.inkscape.org/) -->

<svg
   width="184.79283mm"
   height="24.224483mm"
   viewBox="0 0 184.79283 24.224483"
   version="1.1"
   id="svg5"
   inkscape:version="1.1.2 (b8e25be833, 2022-02-05)"
   sodipodi:docname="RISE.svg"
   xmlns:inkscape="http://www.inkscape.org/namespaces/inkscape"
   xmlns:sodipodi="http://sodipodi.sourceforge.net/DTD/sodipodi-0.dtd"
   xmlns="http://www.w3.org/2000/svg"
   xmlns:svg="http://www.w3.org/2000/svg">
  <sodipodi:namedview
     id="namedview7"
     pagecolor="#ffffff"
     bordercolor="#666666"
     borderopacity="1.0"
     inkscape:pageshadow="2"
     inkscape:pageopacity="0.0"
     inkscape:pagecheckerboard="0"
     inkscape:document-units="mm"
     showgrid="false"
     inkscape:zoom="0.71090067"
     inkscape:cx="373.4699"
     inkscape:cy="2.1099994"
     inkscape:window-width="1920"
     inkscape:window-height="991"
     inkscape:window-x="-9"
     inkscape:window-y="-9"
     inkscape:window-maximized="1"
     inkscape:current-layer="layer1" />
  <defs
     id="defs2">
    <clipPath
       clipPathUnits="userSpaceOnUse"
       id="clipPath838">
      <path
         d="M 0,841.89 H 1190.55 V 0 H 0 Z"
         id="path836" />
    </clipPath>
    <linearGradient
       x1="0"
       y1="0"
       x2="1"
       y2="0"
       gradientUnits="userSpaceOnUse"
       gradientTransform="matrix(68.704697,-0.7346961,-0.7346961,-68.704697,171.88037,421.16699)"
       spreadMethod="pad"
       id="linearGradient1124">
      <stop
         style="stop-opacity:1;stop-color:#2c3792"
         offset="0"
         id="stop1118" />
      <stop
         style="stop-opacity:1;stop-color:#2c3792"
         offset="0.42946472"
         id="stop1120" />
      <stop
         style="stop-opacity:1;stop-color:#ec008c"
         offset="1"
         id="stop1122" />
    </linearGradient>
    <linearGradient
       x1="0"
       y1="0"
       x2="1"
       y2="0"
       gradientUnits="userSpaceOnUse"
       gradientTransform="matrix(63.668358,-0.6808398,-0.6808398,-63.668358,172.45898,421.51758)"
       spreadMethod="pad"
       id="linearGradient1146">
      <stop
         style="stop-opacity:1;stop-color:#2c3792"
         offset="0"
         id="stop1140" />
      <stop
         style="stop-opacity:1;stop-color:#2c3792"
         offset="0.42946472"
         id="stop1142" />
      <stop
         style="stop-opacity:1;stop-color:#ec008c"
         offset="1"
         id="stop1144" />
    </linearGradient>
  </defs>
  <g
     inkscape:label="Layer 1"
     inkscape:groupmode="layer"
     id="layer1"
     transform="translate(-15.946675,-147.96452)">
    <g
       id="g830"
       inkscape:label="RISE"
       transform="matrix(0.22049416,0,0,-0.22372282,-20.595822,254.28767)">
      <g
         id="g832">
        <g
           id="g834"
           clip-path="url(#clipPath838)">
          <g
             id="g840"
             transform="translate(55.6641,793.5693)" />
          <g
             id="g844"
             transform="translate(68.2988,782.3584)" />
          <g
             id="g848"
             transform="translate(71.8516,781.2187)" />
          <g
             id="g852"
             transform="translate(90.9849,793.5498)" />
          <g
             id="g856"
             transform="translate(112.5684,787.8877)" />
          <g
             id="g860"
             transform="translate(142.2651,792.6572)" />
          <g
             id="g866"
             transform="translate(172.4556,793.6064)" />
          <g
             id="g870"
             transform="translate(199.8921,786.292)" />
          <g
             id="g874"
             transform="translate(212.3179,787.5078)" />
          <g
             id="g878"
             transform="translate(226.9282,790.4531)" />
          <g
             id="g882"
             transform="translate(244.8267,788.9707)" />
          <g
             id="g886"
             transform="translate(256.3589,787.5078)" />
          <g
             id="g890"
             transform="translate(304.9727,456.7764)">
            <path
               d="m 0,0 v 1.998 h -28.863 v 7.83 H 8.89 V 0.777 C 8.89,-2.222 8.634,-5.72 8.021,-8.107 H -0.664 C -0.153,-5.775 0,-2.832 0,0 M -14.355,-17.824 H -31.52 v 7.885 h 43.321 v -7.885 H -5.466 v -6.053 H 8.89 v -18.546 h -8.941 v 10.773 h -28.812 v 7.773 h 14.508 z"
               style="fill:#231f20;fill-opacity:1;fill-rule:nonzero;stroke:none"
               id="path892" />
          </g>
          <path
             d="m 354.317,424.903 h -18.851 v -3.054 h 18.851 z m -18.85,7.275 h 18.85 v 3.831 h 8.838 v -21.322 h -36.526 v 21.322 h 8.838 z m 9.246,6.385 h -20.74 v 17.658 h 16.091 v 3.276 h -16.091 v 7.107 h 24.776 v -17.491 h -16.144 v -3.442 h 13.284 c 4.188,0 6.539,0.555 8.327,1.832 v 19.712 h 8.939 v -29.706 h -8.939 v 3.164 c -1.737,-1.388 -4.7,-2.11 -9.503,-2.11"
             style="fill:#231f20;fill-opacity:1;fill-rule:nonzero;stroke:none"
             id="path894" />
          <g
             id="g896"
             transform="translate(402.0781,467.2148)">
            <path
               d="m 0,0 h 8.94 v -13.882 h 6.285 v -8.051 H 8.94 V -38.091 H 0 Z m -21.354,-23.543 c 0,-1.056 0.409,-1.944 1.073,-2.61 0.766,-0.722 1.89,-1.111 3.219,-1.111 1.277,0 2.401,0.389 3.166,1.111 0.665,0.666 1.074,1.554 1.074,2.61 0,1.055 -0.409,1.943 -1.074,2.609 -0.765,0.722 -1.889,1.111 -3.166,1.111 -1.329,0 -2.453,-0.389 -3.219,-1.111 -0.664,-0.666 -1.073,-1.554 -1.073,-2.609 m -5.773,-12.438 h 8.94 v -8.44 H 9.604 v -7.885 h -36.731 z m -2.707,12.438 c 0,3.331 1.277,5.997 3.423,7.829 2.196,1.999 5.517,3.054 9.349,3.054 3.78,0 7.1,-1.055 9.297,-3.054 2.146,-1.832 3.423,-4.498 3.423,-7.829 0,-3.332 -1.277,-5.997 -3.423,-7.829 -2.197,-2 -5.517,-3.055 -9.297,-3.055 -3.832,0 -7.153,1.055 -9.349,3.055 -2.146,1.832 -3.423,4.497 -3.423,7.829 m 26.718,19.767 v -7.218 h -27.945 v 7.218 h 9.605 v 5.22 h 8.94 v -5.22 z"
               style="fill:#231f20;fill-opacity:1;fill-rule:nonzero;stroke:none"
               id="path898" />
          </g>
          <g
             id="g900"
             transform="translate(452.0859,456.7764)">
            <path
               d="m 0,0 v 1.998 h -28.863 v 7.83 H 8.89 V 0.777 C 8.89,-2.222 8.634,-5.72 8.021,-8.107 H -0.664 C -0.153,-5.775 0,-2.832 0,0 M -14.355,-17.824 H -31.52 v 7.885 h 43.321 v -7.885 H -5.466 v -6.053 H 8.89 v -18.546 h -8.941 v 10.773 h -28.812 v 7.773 h 14.508 z"
               style="fill:#231f20;fill-opacity:1;fill-rule:nonzero;stroke:none"
               id="path902" />
          </g>
          <g
             id="g904"
             transform="translate(510.8818,467.2148)">
            <path
               d="m 0,0 v -52.028 h -7.765 v 24.487 h -2.146 v -23.987 h -7.51 v 51.195 h 7.51 v -19.102 h 2.146 V 0 Z m -32.082,-32.261 c 0,-5.164 0.307,-7.885 1.072,-9.051 0.359,-0.5 0.767,-0.722 1.278,-0.722 0.51,0 0.92,0.222 1.277,0.722 0.767,1.166 1.073,3.887 1.073,9.051 0,5.164 -0.306,7.829 -1.073,8.995 -0.357,0.5 -0.767,0.722 -1.277,0.722 -0.511,0 -0.919,-0.222 -1.278,-0.722 -0.765,-1.166 -1.072,-3.831 -1.072,-8.995 m -7.766,0 c 0,7.662 1.431,12.715 4.139,15.27 1.583,1.443 3.575,2.11 5.977,2.11 2.401,0 4.393,-0.667 5.977,-2.11 2.707,-2.555 4.138,-7.608 4.138,-15.27 0,-7.662 -1.431,-12.716 -4.138,-15.269 -1.584,-1.5 -3.576,-2.166 -5.977,-2.166 -2.402,0 -4.394,0.666 -5.977,2.166 -2.708,2.553 -4.139,7.607 -4.139,15.269 m 20.487,26.93 v -7.828 h -21.406 v 7.828 h 6.794 v 6.775 h 8.226 v -6.775 z"
               style="fill:#231f20;fill-opacity:1;fill-rule:nonzero;stroke:none"
               id="path906" />
          </g>
          <g
             id="g908"
             transform="translate(558.1318,467.2148)">
            <path
               d="m 0,0 v -4.72 h 6.182 v -8.051 H 0 v -3.776 h 6.182 v -8.052 H 0 V -29.54 H -8.94 V 0 Z m -27.842,-41.646 c 0,-0.887 0.408,-1.609 1.124,-2.22 1.43,-1.111 4.445,-1.555 8.94,-1.555 4.393,0 7.408,0.444 8.889,1.555 0.715,0.611 1.124,1.333 1.124,2.22 0,0.889 -0.409,1.5 -1.124,2.112 -1.481,1.109 -4.496,1.609 -8.889,1.609 -4.495,0 -7.51,-0.5 -8.94,-1.609 -0.716,-0.612 -1.124,-1.223 -1.124,-2.112 m 6.437,27.709 c 0,2.333 -0.511,4.109 -1.532,5.108 -0.818,0.889 -1.839,1.389 -3.066,1.389 -1.277,0 -2.299,-0.5 -3.116,-1.389 -1.022,-0.999 -1.532,-2.775 -1.532,-5.108 0,-2.277 0.51,-3.998 1.532,-5.109 0.817,-0.889 1.839,-1.277 3.116,-1.277 1.227,0 2.248,0.388 3.066,1.277 1.021,1.111 1.532,2.832 1.532,5.109 M -36.68,-41.646 c 0,3 1.124,5.443 3.117,7.219 3.32,2.998 9.042,4.276 15.785,4.276 6.692,0 12.363,-1.278 15.683,-4.276 2.044,-1.776 3.168,-4.219 3.168,-7.219 0,-3.109 -1.124,-5.552 -3.168,-7.329 -3.32,-2.942 -8.991,-4.219 -15.683,-4.219 -6.743,0 -12.465,1.277 -15.785,4.219 -1.993,1.777 -3.117,4.22 -3.117,7.329 m -2.554,27.709 c 0,4.998 1.584,8.829 4.291,11.161 2.298,2.054 5.364,3.054 8.94,3.054 3.525,0 6.642,-1 8.838,-3.054 2.759,-2.332 4.291,-6.163 4.291,-11.161 0,-4.998 -1.532,-8.718 -4.291,-11.105 -2.196,-2 -5.313,-3.055 -8.838,-3.055 -3.576,0 -6.642,1.055 -8.94,3.055 -2.707,2.387 -4.291,6.107 -4.291,11.105"
               style="fill:#231f20;fill-opacity:1;fill-rule:nonzero;stroke:none"
               id="path910" />
          </g>
          <g
             id="g912"
             transform="translate(582.4951,418.4619)">
            <path
               d="M 0,0 H -13.333 V 47.865 H 4.7 V 39.924 H -5.312 V 7.885 h 6.436 c 3.219,0 5.415,0.334 6.999,1.722 V 48.42 h 7.765 V 29.318 h 2.657 v 19.435 h 7.918 V -3.275 H 18.545 V 21.212 H 15.888 V -2.775 H 8.123 V 2 C 6.488,0.556 3.934,0 0,0"
               style="fill:#231f20;fill-opacity:1;fill-rule:nonzero;stroke:none"
               id="path914" />
          </g>
          <g
             id="g916"
             transform="translate(647.2676,467.2148)">
            <path
               d="m 0,0 h 8.94 v -12.216 h 6.285 v -8.051 H 8.94 V -32.095 H 0 Z m -21.354,-22.1 c 0,-0.944 0.409,-1.721 0.971,-2.332 0.766,-0.721 1.942,-1.055 3.321,-1.055 1.328,0 2.502,0.334 3.269,1.055 0.562,0.611 0.971,1.388 0.971,2.332 0,0.945 -0.409,1.722 -0.971,2.277 -0.767,0.722 -1.941,1.111 -3.269,1.111 -1.379,0 -2.555,-0.389 -3.321,-1.111 -0.562,-0.555 -0.971,-1.332 -0.971,-2.277 m -6.334,-19.989 v 7.996 H 8.94 V -52.861 H 0 v 10.772 z m -2.146,19.989 c 0,3.11 1.277,5.72 3.524,7.608 2.147,1.776 5.263,2.831 9.248,2.831 3.933,0 7.049,-1.055 9.195,-2.831 2.248,-1.888 3.525,-4.498 3.525,-7.608 0,-3.165 -1.277,-5.774 -3.525,-7.606 -2.146,-1.777 -5.262,-2.889 -9.195,-2.889 -3.985,0 -7.101,1.112 -9.248,2.889 -2.247,1.832 -3.524,4.441 -3.524,7.606 m 26.718,18.824 v -7.329 h -27.945 v 7.329 h 9.605 v 4.72 h 8.94 v -4.72 z"
               style="fill:#231f20;fill-opacity:1;fill-rule:nonzero;stroke:none"
               id="path918" />
          </g>
          <g
             id="g920"
             transform="translate(697.5312,446.2256)">
            <path
               d="m 0,0 v 11.994 h -29.477 v 8.108 H 8.94 V 1.61 c 0,-5.774 -0.409,-12.16 -1.277,-16.657 h -8.94 C -0.46,-10.771 0,-4.997 0,0 M -12.465,-20.934 V 0.389 h 8.633 v -21.323 h 15.071 v -7.939 H -31.47 v 7.939 h 6.795 V 0.389 h 8.582 v -21.323 z"
               style="fill:#231f20;fill-opacity:1;fill-rule:nonzero;stroke:none"
               id="path922" />
          </g>
          <g
             id="g924"
             transform="translate(745.1377,442.7832)">
            <path
               d="m 0,0 c 3.423,0 5.466,1.666 5.466,5.997 0,4.275 -2.043,5.941 -5.466,5.941 H -5.62 V 0 Z M 4.853,-14.215 C 4.598,-9.939 3.27,-8.552 -0.511,-8.552 H -5.62 v -15.269 h -9.706 v 44.31 H 1.839 c 8.787,0 13.333,-5.218 13.333,-13.549 0,-5.941 -2.554,-9.772 -7.101,-11.16 4.343,-0.777 6.029,-3.609 6.386,-9.384 l 0.357,-6.108 c 0.103,-1.777 0.41,-3.109 0.87,-4.109 H 5.875 c -0.358,0.944 -0.613,2.554 -0.716,4.053 z"
               style="fill:#231f20;fill-opacity:1;fill-rule:nonzero;stroke:none"
               id="path926" />
          </g>
          <path
             d="m 775.019,418.962 h -9.706 v 44.311 h 9.706 z"
             style="fill:#231f20;fill-opacity:1;fill-rule:nonzero;stroke:none"
             id="path928" />
          <g
             id="g930"
             transform="translate(794.8389,418.1846)">
            <path
               d="m 0,0 c -9.451,0 -15.02,5.608 -15.02,13.383 v 0.832 h 9.707 v -0.944 c 0,-2.998 1.89,-4.998 5.313,-4.998 3.371,0 5.262,2 5.262,4.998 0,2.833 -1.533,4.609 -5.415,5.442 L -3.78,19.49 c -7.153,1.555 -11.444,5.608 -11.444,13.382 0,7.274 5.109,12.993 14.355,12.993 9.144,0 14.305,-5.83 14.305,-12.604 V 32.539 H 3.78 v 0.722 c 0,2.61 -1.685,4.331 -4.649,4.331 -3.065,0 -4.699,-1.721 -4.699,-4.331 0,-2.831 1.634,-4.276 5.568,-5.164 L 3.576,27.319 C 11.137,25.654 14.968,21.268 14.968,13.715 14.968,5.775 9.706,0 0,0"
               style="fill:#231f20;fill-opacity:1;fill-rule:nonzero;stroke:none"
               id="path932" />
          </g>
          <g
             id="g934"
             transform="translate(814.0439,463.2725)">
            <path
               d="M 0,0 H 25.9 V -8.551 H 9.706 v -8.773 h 14.1 v -8.551 h -14.1 v -9.885 h 16.45 v -8.551 H 0 Z"
               style="fill:#231f20;fill-opacity:1;fill-rule:nonzero;stroke:none"
               id="path936" />
          </g>
          <g
             id="g938"
             transform="translate(890.5156,467.2148)">
            <path
               d="m 0,0 h 8.94 v -20.045 h 6.59 v -8.106 H 8.94 V -52.028 H 0 Z m -17.012,-39.368 c -2.349,-4.61 -7.968,-8.441 -13.843,-9.662 v 8.44 c 5.568,2.443 9.399,6.608 9.399,21.101 V -0.61 h 8.89 v -18.879 c 0,-14.493 3.78,-18.547 9.348,-21.101 v -8.44 c -5.824,1.166 -11.188,5.109 -13.794,9.662"
               style="fill:#231f20;fill-opacity:1;fill-rule:nonzero;stroke:none"
               id="path940" />
          </g>
          <path
             d="m 940.83,425.626 h -18.851 v -3.388 h 18.851 z m -13.435,27.984 c 0,2.166 -0.562,3.832 -1.533,4.887 -0.766,0.833 -1.788,1.333 -3.014,1.333 -1.226,0 -2.299,-0.5 -3.014,-1.333 -0.971,-1.055 -1.584,-2.721 -1.584,-4.887 0,-2.22 0.613,-3.886 1.584,-4.941 0.715,-0.833 1.788,-1.277 3.014,-1.277 1.226,0 2.248,0.444 3.014,1.277 0.971,1.055 1.533,2.721 1.533,4.941 m -5.416,-20.322 h 18.851 v 4.498 h 8.838 v -23.099 h -36.526 v 23.099 h 8.837 z m -12.26,20.322 c 0,4.832 1.635,8.552 4.342,10.828 2.248,2.055 5.21,3.055 8.787,3.055 3.576,0 6.539,-1 8.787,-3.055 1.992,-1.666 3.372,-4.109 3.933,-7.162 h 5.161 v 9.939 h 8.939 v -27.708 h -8.939 v 9.828 h -5.263 c -0.664,-2.775 -1.992,-4.997 -3.831,-6.607 -2.248,-2.055 -5.211,-3.054 -8.787,-3.054 -3.577,0 -6.539,0.999 -8.787,3.054 -2.707,2.332 -4.342,5.997 -4.342,10.882"
             style="fill:#231f20;fill-opacity:1;fill-rule:nonzero;stroke:none"
             id="path942" />
          <g
             id="g944"
             transform="translate(961.4639,433.8428)">
            <path
               d="m 0,0 h 8.94 v -11.049 h 27.791 v -7.885 L 0,-18.934 Z M 17.728,3.666 H -2.503 V 32.762 H 22.019 V 24.877 H 6.233 V 11.494 h 12.72 c 4.036,0 6.438,0.556 8.174,1.833 v 20.045 h 8.94 V 20.268 h 6.284 V 12.217 H 36.067 V -3.109 h -8.94 v 8.94 C 25.391,4.332 22.428,3.666 17.728,3.666"
               style="fill:#231f20;fill-opacity:1;fill-rule:nonzero;stroke:none"
               id="path946" />
          </g>
          <g
             id="g948"
             transform="translate(283.9819,389.8301)">
            <path
               d="M 0,0 C 2.753,0 4.411,1.351 4.411,4.6 4.411,7.849 2.753,9.199 0,9.199 H -5.062 V 0 Z m 4.056,-7.526 c -0.178,3.088 -1.214,4.277 -4.352,4.277 h -4.766 v -9.521 h -3.434 v 25.218 h 9.029 c 4.825,0 7.312,-2.799 7.312,-7.591 0,-3.345 -1.332,-5.596 -3.997,-6.433 2.309,-0.45 3.375,-2.059 3.582,-5.371 l 0.207,-3.088 c 0.06,-1.126 0.208,-2.059 0.415,-2.735 H 4.559 c -0.178,0.58 -0.296,1.319 -0.355,2.22 z"
               style="fill:#231f20;fill-opacity:1;fill-rule:nonzero;stroke:none"
               id="path950" />
          </g>
          <path
             d="m 298.867,377.061 h -3.434 v 25.218 h 3.434 z"
             style="fill:#231f20;fill-opacity:1;fill-rule:nonzero;stroke:none"
             id="path952" />
          <g
             id="g954"
             transform="translate(310.4102,376.6426)">
            <path
               d="m 0,0 c -5.003,0 -8.022,3.088 -8.022,7.397 v 0.515 h 3.463 V 7.333 c 0,-2.444 1.717,-4.117 4.559,-4.117 2.871,0 4.559,1.673 4.559,4.117 0,2.059 -1.155,3.507 -3.671,4.086 l -2.99,0.675 c -3.67,0.837 -5.92,3.023 -5.92,6.948 0,3.827 2.634,7.012 7.578,7.012 5.003,0 7.608,-3.185 7.608,-7.012 V 18.655 H 3.7 v 0.387 c 0,2.219 -1.45,3.763 -4.144,3.763 -2.664,0 -4.115,-1.544 -4.115,-3.763 0,-2.123 1.155,-3.217 3.552,-3.764 l 2.99,-0.675 C 5.861,13.702 8.022,11.322 8.022,7.397 8.022,3.088 5.032,0 0,0"
               style="fill:#231f20;fill-opacity:1;fill-rule:nonzero;stroke:none"
               id="path956" />
          </g>
          <g
             id="g958"
             transform="translate(321.7139,402.2783)">
            <path
               d="M 0,0 H 13.735 V -3.249 H 3.434 v -7.43 h 9.117 v -3.249 H 3.434 v -8.041 h 10.479 v -3.249 H 0 Z"
               style="fill:#231f20;fill-opacity:1;fill-rule:nonzero;stroke:none"
               id="path960" />
          </g>
          <g
             id="g962"
             transform="translate(358.1479,386.0664)">
            <path
               d="m 0,0 c 0,3.989 -1.006,6.498 -4.056,6.498 -3.048,0 -4.055,-2.509 -4.055,-6.498 0,-3.988 1.007,-6.497 4.055,-6.497 C -1.006,-6.497 0,-3.988 0,0 m 3.256,0 c 0,-6.015 -2.427,-9.424 -7.312,-9.424 -4.913,0 -7.341,3.409 -7.341,9.424 0,6.016 2.428,9.425 7.341,9.425 4.885,0 7.312,-3.409 7.312,-9.425"
               style="fill:#231f20;fill-opacity:1;fill-rule:nonzero;stroke:none"
               id="path964" />
          </g>
          <g
             id="g966"
             transform="translate(371.376,399.6084)">
            <path
               d="m 0,0 c -2.042,0 -2.635,-0.676 -2.635,-2.573 v -1.962 h 4.204 v -2.927 h -4.204 v -15.086 h -3.256 v 15.086 h -2.368 v 2.927 h 2.368 v 2.123 c 0,3.924 1.569,5.339 5.447,5.339 0.681,0 1.332,-0.032 2.013,-0.16 V 0 Z"
               style="fill:#231f20;fill-opacity:1;fill-rule:nonzero;stroke:none"
               id="path968" />
          </g>
          <g
             id="g970"
             transform="translate(397.0952,377.0605)">
            <path
               d="M 0,0 -9.473,18.56 V 0 h -3.434 v 25.218 h 3.523 L 0.088,6.626 V 25.218 H 3.522 V 0 Z"
               style="fill:#231f20;fill-opacity:1;fill-rule:nonzero;stroke:none"
               id="path972" />
          </g>
          <g
             id="g974"
             transform="translate(414.7925,382.3682)">
            <path
               d="m 0,0 c 0,1.865 -1.333,2.862 -3.878,2.862 -2.516,0 -3.848,-0.997 -3.848,-2.862 0,-1.898 1.332,-2.863 3.848,-2.863 C -1.333,-2.863 0,-1.898 0,0 m -4.707,-5.726 c -3.848,0 -6.275,2.059 -6.275,5.726 0,3.635 2.427,5.725 6.275,5.725 2.279,0 4.085,-0.836 4.677,-2.316 v 2.927 c 0,2.445 -1.184,3.86 -3.582,3.86 -2.131,0 -3.226,-0.997 -3.463,-2.831 h -3.286 c 0.237,3.571 2.516,5.758 6.749,5.758 4.618,0 6.868,-2.67 6.868,-6.787 v -9.167 c 0,-0.9 0.148,-1.865 0.385,-2.477 H 0.296 c -0.208,0.483 -0.326,1.159 -0.326,1.93 -0.532,-1.415 -2.22,-2.348 -4.677,-2.348"
               style="fill:#231f20;fill-opacity:1;fill-rule:nonzero;stroke:none"
               id="path976" />
          </g>
          <g
             id="g978"
             transform="translate(425.8892,382.5283)">
            <path
               d="M 0,0 C 0,-2.251 0.77,-2.798 2.842,-2.798 H 4.5 V -5.629 C 3.967,-5.726 2.99,-5.726 2.279,-5.726 c -3.878,0 -5.535,1.223 -5.535,5.083 V 9.618 h -2.398 v 2.927 h 2.398 v 5.114 H 0 V 12.545 H 4.5 V 9.618 H 0 Z"
               style="fill:#231f20;fill-opacity:1;fill-rule:nonzero;stroke:none"
               id="path980" />
          </g>
          <path
             d="m 433.287,395.073 h 3.286 V 377.06 h -3.286 z m 0,7.205 h 3.286 v -3.796 h -3.286 z"
             style="fill:#231f20;fill-opacity:1;fill-rule:nonzero;stroke:none"
             id="path982" />
          <g
             id="g984"
             transform="translate(451.1353,386.0664)">
            <path
               d="m 0,0 c 0,3.989 -1.006,6.498 -4.056,6.498 -3.048,0 -4.055,-2.509 -4.055,-6.498 0,-3.988 1.007,-6.497 4.055,-6.497 C -1.006,-6.497 0,-3.988 0,0 m 3.256,0 c 0,-6.015 -2.427,-9.424 -7.312,-9.424 -4.913,0 -7.341,3.409 -7.341,9.424 0,6.016 2.428,9.425 7.341,9.425 4.885,0 7.312,-3.409 7.312,-9.425"
               style="fill:#231f20;fill-opacity:1;fill-rule:nonzero;stroke:none"
               id="path986" />
          </g>
          <g
             id="g988"
             transform="translate(471.4087,377.0605)">
            <path
               d="m 0,0 h -3.286 v 11.001 c 0,3.119 -1.154,4.503 -3.286,4.503 -2.368,0 -4.174,-2.026 -4.174,-5.758 V 0 h -3.226 v 18.013 h 3.226 v -3.024 c 0.77,2.091 2.457,3.442 4.974,3.442 3.7,0 5.772,-2.574 5.772,-7.173 z"
               style="fill:#231f20;fill-opacity:1;fill-rule:nonzero;stroke:none"
               id="path990" />
          </g>
          <g
             id="g992"
             transform="translate(485.2285,382.3682)">
            <path
               d="m 0,0 c 0,1.865 -1.332,2.862 -3.878,2.862 -2.516,0 -3.849,-0.997 -3.849,-2.862 0,-1.898 1.333,-2.863 3.849,-2.863 C -1.332,-2.863 0,-1.898 0,0 m -4.707,-5.726 c -3.848,0 -6.275,2.059 -6.275,5.726 0,3.635 2.427,5.725 6.275,5.725 2.279,0 4.085,-0.836 4.677,-2.316 v 2.927 c 0,2.445 -1.184,3.86 -3.582,3.86 -2.131,0 -3.226,-0.997 -3.463,-2.831 h -3.286 c 0.237,3.571 2.516,5.758 6.749,5.758 4.618,0 6.868,-2.67 6.868,-6.787 v -9.167 c 0,-0.9 0.148,-1.865 0.385,-2.477 H 0.296 c -0.207,0.483 -0.326,1.159 -0.326,1.93 -0.532,-1.415 -2.22,-2.348 -4.677,-2.348"
               style="fill:#231f20;fill-opacity:1;fill-rule:nonzero;stroke:none"
               id="path994" />
          </g>
          <path
             d="m 492.151,402.278 h 3.256 V 377.06 h -3.256 z"
             style="fill:#231f20;fill-opacity:1;fill-rule:nonzero;stroke:none"
             id="path996" />
          <g
             id="g998"
             transform="translate(516.6279,389.959)">
            <path
               d="M 0,0 8.555,-12.898 H 4.647 l -7.371,11.29 h -2.457 v -11.29 h -3.433 v 25.217 h 3.433 V 1.641 h 2.457 L 3.7,12.319 h 3.819 z"
               style="fill:#231f20;fill-opacity:1;fill-rule:nonzero;stroke:none"
               id="path1000" />
          </g>
          <g
             id="g1002"
             transform="translate(537.0791,386.0664)">
            <path
               d="m 0,0 c 0,3.989 -1.006,6.498 -4.056,6.498 -3.048,0 -4.055,-2.509 -4.055,-6.498 0,-3.988 1.007,-6.497 4.055,-6.497 C -1.006,-6.497 0,-3.988 0,0 m 3.256,0 c 0,-6.015 -2.427,-9.424 -7.312,-9.424 -4.914,0 -7.341,3.409 -7.341,9.424 0,6.016 2.427,9.425 7.341,9.425 4.885,0 7.312,-3.409 7.312,-9.425"
               style="fill:#231f20;fill-opacity:1;fill-rule:nonzero;stroke:none"
               id="path1004" />
          </g>
          <g
             id="g1006"
             transform="translate(546.6069,386.292)">
            <path
               d="M 0,0 V -9.231 H -3.227 V 8.781 H 0 V 5.758 C 0.71,8.041 2.042,9.199 4.588,9.199 5.092,9.199 5.654,9.167 5.95,9.07 L 5.891,6.176 C 5.625,6.208 5.092,6.24 4.5,6.24 1.717,6.24 0,4.117 0,0"
               style="fill:#231f20;fill-opacity:1;fill-rule:nonzero;stroke:none"
               id="path1008" />
          </g>
          <g
             id="g1010"
             transform="translate(557.2607,387.6748)">
            <path
               d="M 0,0 H 8.022 C 7.786,3.023 6.631,4.857 4.026,4.857 1.362,4.857 0.237,3.023 0,0 m -0.029,-2.701 c 0.118,-3.378 1.332,-5.372 4.114,-5.372 2.072,0 3.315,1.094 3.553,2.862 h 3.344 c -0.532,-3.635 -2.93,-5.821 -6.897,-5.821 -4.973,0 -7.4,3.409 -7.4,9.424 0,5.983 2.427,9.424 7.341,9.424 4.884,0 7.312,-3.441 7.312,-9.424 0,-0.386 0,-0.74 -0.03,-1.093 z"
               style="fill:#231f20;fill-opacity:1;fill-rule:nonzero;stroke:none"
               id="path1012" />
          </g>
          <g
             id="g1014"
             transform="translate(581.9453,382.3682)">
            <path
               d="m 0,0 c 0,1.865 -1.332,2.862 -3.878,2.862 -2.516,0 -3.849,-0.997 -3.849,-2.862 0,-1.898 1.333,-2.863 3.849,-2.863 C -1.332,-2.863 0,-1.898 0,0 m -4.707,-5.726 c -3.848,0 -6.275,2.059 -6.275,5.726 0,3.635 2.427,5.725 6.275,5.725 2.279,0 4.085,-0.836 4.677,-2.316 v 2.927 c 0,2.445 -1.184,3.86 -3.582,3.86 -2.131,0 -3.226,-0.997 -3.463,-2.831 h -3.286 c 0.237,3.571 2.516,5.758 6.749,5.758 4.618,0 6.868,-2.67 6.868,-6.787 v -9.167 c 0,-0.9 0.148,-1.865 0.385,-2.477 H 0.296 c -0.207,0.483 -0.326,1.159 -0.326,1.93 -0.532,-1.415 -2.22,-2.348 -4.677,-2.348"
               style="fill:#231f20;fill-opacity:1;fill-rule:nonzero;stroke:none"
               id="path1016" />
          </g>
          <g
             id="g1018"
             transform="translate(607.5146,377.0605)">
            <path
               d="M 0,0 -6.482,17.627 V 0 h -3.405 v 25.218 h 3.789 L 1.628,4.246 9.354,25.218 h 3.819 V 0 H 9.739 V 17.627 L 3.286,0 Z"
               style="fill:#231f20;fill-opacity:1;fill-rule:nonzero;stroke:none"
               id="path1020" />
          </g>
          <g
             id="g1022"
             transform="translate(634.8315,382.3682)">
            <path
               d="m 0,0 c 0,1.865 -1.333,2.862 -3.878,2.862 -2.516,0 -3.848,-0.997 -3.848,-2.862 0,-1.898 1.332,-2.863 3.848,-2.863 C -1.333,-2.863 0,-1.898 0,0 m -4.707,-5.726 c -3.848,0 -6.275,2.059 -6.275,5.726 0,3.635 2.427,5.725 6.275,5.725 2.279,0 4.085,-0.836 4.677,-2.316 v 2.927 c 0,2.445 -1.184,3.86 -3.582,3.86 -2.131,0 -3.226,-0.997 -3.463,-2.831 h -3.286 c 0.237,3.571 2.516,5.758 6.749,5.758 4.618,0 6.868,-2.67 6.868,-6.787 v -9.167 c 0,-0.9 0.148,-1.865 0.385,-2.477 H 0.296 c -0.208,0.483 -0.326,1.159 -0.326,1.93 -0.532,-1.415 -2.22,-2.348 -4.677,-2.348"
               style="fill:#231f20;fill-opacity:1;fill-rule:nonzero;stroke:none"
               id="path1024" />
          </g>
          <g
             id="g1026"
             transform="translate(644.8623,386.292)">
            <path
               d="M 0,0 V -9.231 H -3.227 V 8.781 H 0 V 5.758 C 0.71,8.041 2.042,9.199 4.588,9.199 5.092,9.199 5.654,9.167 5.95,9.07 L 5.891,6.176 C 5.625,6.208 5.092,6.24 4.5,6.24 1.717,6.24 0,4.117 0,0"
               style="fill:#231f20;fill-opacity:1;fill-rule:nonzero;stroke:none"
               id="path1028" />
          </g>
          <path
             d="m 653.148,395.073 h 3.286 V 377.06 h -3.286 z m 0,7.205 h 3.286 v -3.796 h -3.286 z"
             style="fill:#231f20;fill-opacity:1;fill-rule:nonzero;stroke:none"
             id="path1030" />
          <g
             id="g1032"
             transform="translate(664.7505,382.5283)">
            <path
               d="M 0,0 C 0,-2.251 0.77,-2.798 2.842,-2.798 H 4.5 V -5.629 C 3.967,-5.726 2.99,-5.726 2.279,-5.726 c -3.878,0 -5.535,1.223 -5.535,5.083 V 9.618 h -2.398 v 2.927 h 2.398 v 5.114 H 0 V 12.545 H 4.5 V 9.618 H 0 Z"
               style="fill:#231f20;fill-opacity:1;fill-rule:nonzero;stroke:none"
               id="path1034" />
          </g>
          <path
             d="m 672.148,395.073 h 3.286 V 377.06 h -3.286 z m 0,7.205 h 3.286 v -3.796 h -3.286 z"
             style="fill:#231f20;fill-opacity:1;fill-rule:nonzero;stroke:none"
             id="path1036" />
          <g
             id="g1038"
             transform="translate(692.6309,377.0605)">
            <path
               d="m 0,0 h -3.286 v 11.644 c 0,2.605 -1.006,3.86 -2.989,3.86 -2.309,0 -3.967,-1.93 -3.967,-5.726 V 0 h -3.227 v 18.013 h 3.227 v -2.959 c 0.74,2.058 2.279,3.377 4.736,3.377 2.457,0 4.263,-1.319 4.973,-3.603 0.918,2.444 2.694,3.603 5.21,3.603 3.552,0 5.536,-2.541 5.536,-6.915 V 0 H 6.927 v 11.644 c 0,2.605 -1.036,3.86 -2.989,3.86 C 1.628,15.504 0,13.51 0,9.746 Z"
               style="fill:#231f20;fill-opacity:1;fill-rule:nonzero;stroke:none"
               id="path1040" />
          </g>
          <g
             id="g1042"
             transform="translate(709.0835,387.6748)">
            <path
               d="M 0,0 H 8.022 C 7.786,3.023 6.631,4.857 4.026,4.857 1.362,4.857 0.237,3.023 0,0 m -0.029,-2.701 c 0.118,-3.378 1.332,-5.372 4.114,-5.372 2.072,0 3.316,1.094 3.552,2.862 h 3.345 c -0.532,-3.635 -2.93,-5.821 -6.897,-5.821 -4.973,0 -7.4,3.409 -7.4,9.424 0,5.983 2.427,9.424 7.341,9.424 4.884,0 7.312,-3.441 7.312,-9.424 0,-0.386 0,-0.74 -0.03,-1.093 z"
               style="fill:#231f20;fill-opacity:1;fill-rule:nonzero;stroke:none"
               id="path1044" />
          </g>
          <g
             id="g1046"
             transform="translate(743.771,381.5957)">
            <path
               d="M 0,0 -6.157,7.366 C -7.933,6.079 -8.703,4.343 -8.703,2.444 c 0,-2.83 1.983,-4.277 4.411,-4.277 1.776,0 3.315,0.547 4.292,1.833 M 4.056,0.064 7.933,-4.535 H 3.789 l -1.717,2.058 c -1.51,-1.576 -3.7,-2.476 -6.394,-2.476 -4.707,0 -7.697,2.894 -7.697,7.333 0,2.96 1.273,5.404 4.026,7.205 -1.539,1.673 -2.308,3.507 -2.308,5.598 0,3.698 2.486,5.918 6.068,5.918 3.552,0 6.068,-2.188 6.068,-5.79 V 14.475 H -1.51 v 0.74 c 0,1.736 -1.036,2.765 -2.723,2.765 -1.687,0 -2.724,-1.029 -2.724,-2.765 0,-1.352 0.415,-2.413 1.717,-3.957 L 1.687,2.959 c 0.474,1.384 0.711,3.056 0.8,5.019 H 5.832 C 5.713,4.793 5.121,2.123 4.056,0.064"
               style="fill:#231f20;fill-opacity:1;fill-rule:nonzero;stroke:none"
               id="path1048" />
          </g>
          <g
             id="g1050"
             transform="translate(776.2373,389.6689)">
            <path
               d="m 0,0 c 0,5.983 -1.213,9.746 -5.565,9.746 -4.411,0 -5.595,-3.763 -5.595,-9.746 0,-6.079 1.214,-9.778 5.595,-9.778 C -1.243,-9.778 0,-6.111 0,0 m -14.594,0 c 0,6.723 1.717,13.027 9.029,13.027 7.193,0 8.999,-6.272 8.999,-13.027 0,-6.786 -1.776,-13.026 -8.999,-13.026 -7.341,0 -9.029,6.272 -9.029,13.026"
               style="fill:#231f20;fill-opacity:1;fill-rule:nonzero;stroke:none"
               id="path1052" />
          </g>
          <g
             id="g1054"
             transform="translate(789.731,395.4912)">
            <path
               d="M 0,0 C 4.085,0 6.661,-2.252 7.075,-6.337 H 3.76 c -0.208,2.123 -1.54,3.41 -3.76,3.41 -3.049,0 -4.055,-2.509 -4.055,-6.498 0,-3.988 1.006,-6.497 4.055,-6.497 2.22,0 3.552,1.287 3.76,3.409 H 7.075 C 6.661,-16.598 4.085,-18.849 0,-18.849 c -4.914,0 -7.341,3.41 -7.341,9.424 C -7.341,-3.409 -4.914,0 0,0"
               style="fill:#231f20;fill-opacity:1;fill-rule:nonzero;stroke:none"
               id="path1056" />
          </g>
          <g
             id="g1058"
             transform="translate(802.3086,387.6748)">
            <path
               d="M 0,0 H 8.022 C 7.786,3.023 6.631,4.857 4.026,4.857 1.362,4.857 0.237,3.023 0,0 m -0.029,-2.701 c 0.118,-3.378 1.332,-5.372 4.114,-5.372 2.072,0 3.315,1.094 3.553,2.862 h 3.344 c -0.532,-3.635 -2.93,-5.821 -6.897,-5.821 -4.973,0 -7.4,3.409 -7.4,9.424 0,5.983 2.427,9.424 7.341,9.424 4.884,0 7.312,-3.441 7.312,-9.424 0,-0.386 0,-0.74 -0.03,-1.093 z"
               style="fill:#231f20;fill-opacity:1;fill-rule:nonzero;stroke:none"
               id="path1060" />
          </g>
          <g
             id="g1062"
             transform="translate(826.9932,382.3682)">
            <path
               d="m 0,0 c 0,1.865 -1.332,2.862 -3.878,2.862 -2.516,0 -3.849,-0.997 -3.849,-2.862 0,-1.898 1.333,-2.863 3.849,-2.863 C -1.332,-2.863 0,-1.898 0,0 m -4.707,-5.726 c -3.848,0 -6.275,2.059 -6.275,5.726 0,3.635 2.427,5.725 6.275,5.725 2.279,0 4.085,-0.836 4.677,-2.316 v 2.927 c 0,2.445 -1.184,3.86 -3.582,3.86 -2.131,0 -3.226,-0.997 -3.463,-2.831 h -3.286 c 0.237,3.571 2.516,5.758 6.749,5.758 4.618,0 6.868,-2.67 6.868,-6.787 v -9.167 c 0,-0.9 0.148,-1.865 0.385,-2.477 H 0.296 c -0.207,0.483 -0.326,1.159 -0.326,1.93 -0.532,-1.415 -2.22,-2.348 -4.677,-2.348"
               style="fill:#231f20;fill-opacity:1;fill-rule:nonzero;stroke:none"
               id="path1064" />
          </g>
          <g
             id="g1066"
             transform="translate(847.7695,377.0605)">
            <path
               d="m 0,0 h -3.286 v 11.001 c 0,3.119 -1.154,4.503 -3.286,4.503 -2.368,0 -4.174,-2.026 -4.174,-5.758 V 0 h -3.226 v 18.013 h 3.226 v -3.024 c 0.77,2.091 2.457,3.442 4.974,3.442 3.7,0 5.772,-2.574 5.772,-7.173 z"
               style="fill:#231f20;fill-opacity:1;fill-rule:nonzero;stroke:none"
               id="path1068" />
          </g>
          <g
             id="g1070"
             transform="translate(873.6646,386.9033)">
            <path
               d="M 0,0 V 15.375 H 3.434 V -0.482 c 0,-5.919 -2.753,-9.779 -8.526,-9.779 -5.772,0 -8.554,3.86 -8.554,9.779 v 15.857 h 3.433 V 0 c 0,-4.567 1.51,-7.013 5.121,-7.013 C -1.51,-7.013 0,-4.567 0,0"
               style="fill:#231f20;fill-opacity:1;fill-rule:nonzero;stroke:none"
               id="path1072" />
          </g>
          <g
             id="g1074"
             transform="translate(894.7954,377.0605)">
            <path
               d="m 0,0 h -3.286 v 11.001 c 0,3.119 -1.154,4.503 -3.286,4.503 -2.368,0 -4.174,-2.026 -4.174,-5.758 V 0 h -3.226 v 18.013 h 3.226 v -3.024 c 0.77,2.091 2.457,3.442 4.974,3.442 3.7,0 5.772,-2.574 5.772,-7.173 z"
               style="fill:#231f20;fill-opacity:1;fill-rule:nonzero;stroke:none"
               id="path1076" />
          </g>
          <path
             d="m 898.403,395.073 h 3.286 V 377.06 h -3.286 z m 0,7.205 h 3.286 v -3.796 h -3.286 z"
             style="fill:#231f20;fill-opacity:1;fill-rule:nonzero;stroke:none"
             id="path1078" />
          <g
             id="g1080"
             transform="translate(919.981,395.0732)">
            <path
               d="M 0,0 -6.069,-18.013 H -9.858 L -15.926,0 h 3.434 L -7.963,-14.121 -3.434,0 Z"
               style="fill:#231f20;fill-opacity:1;fill-rule:nonzero;stroke:none"
               id="path1082" />
          </g>
          <g
             id="g1084"
             transform="translate(924.7129,387.6748)">
            <path
               d="M 0,0 H 8.022 C 7.786,3.023 6.631,4.857 4.026,4.857 1.362,4.857 0.237,3.023 0,0 m -0.029,-2.701 c 0.118,-3.378 1.332,-5.372 4.114,-5.372 2.072,0 3.315,1.094 3.553,2.862 h 3.344 c -0.532,-3.635 -2.93,-5.821 -6.897,-5.821 -4.973,0 -7.4,3.409 -7.4,9.424 0,5.983 2.427,9.424 7.341,9.424 4.884,0 7.312,-3.441 7.312,-9.424 0,-0.386 0,-0.74 -0.03,-1.093 z"
               style="fill:#231f20;fill-opacity:1;fill-rule:nonzero;stroke:none"
               id="path1086" />
          </g>
          <g
             id="g1088"
             transform="translate(942.3223,386.292)">
            <path
               d="M 0,0 V -9.231 H -3.227 V 8.781 H 0 V 5.758 C 0.71,8.041 2.042,9.199 4.588,9.199 5.092,9.199 5.654,9.167 5.95,9.07 L 5.891,6.176 C 5.625,6.208 5.092,6.24 4.5,6.24 1.717,6.24 0,4.117 0,0"
               style="fill:#231f20;fill-opacity:1;fill-rule:nonzero;stroke:none"
               id="path1090" />
          </g>
          <g
             id="g1092"
             transform="translate(962.479,390.2158)">
            <path
               d="m 0,0 v -0.418 h -3.256 v 0.45 c 0,1.32 -1.007,2.413 -2.931,2.413 -1.954,0 -2.96,-1.093 -2.96,-2.381 0,-1.961 1.48,-1.994 4.559,-2.701 3.581,-0.708 5.21,-2.381 5.21,-5.501 0,-3.088 -2.546,-5.435 -6.542,-5.435 -3.967,0 -6.572,2.283 -6.572,5.435 v 0.515 h 3.256 v -0.515 c 0,-1.64 1.332,-2.605 3.316,-2.605 1.953,0 3.285,0.997 3.285,2.509 0,2.09 -1.539,2.316 -4.529,2.992 -3.582,0.675 -5.21,2.251 -5.21,5.242 0,3.088 2.28,5.275 6.187,5.275 C -2.309,5.275 0,3.152 0,0"
               style="fill:#231f20;fill-opacity:1;fill-rule:nonzero;stroke:none"
               id="path1094" />
          </g>
          <path
             d="m 966.146,395.073 h 3.286 V 377.06 h -3.286 z m 0,7.205 h 3.286 v -3.796 h -3.286 z"
             style="fill:#231f20;fill-opacity:1;fill-rule:nonzero;stroke:none"
             id="path1096" />
          <g
             id="g1098"
             transform="translate(977.7476,382.5283)">
            <path
               d="M 0,0 C 0,-2.251 0.77,-2.798 2.842,-2.798 H 4.5 V -5.629 C 3.967,-5.726 2.99,-5.726 2.279,-5.726 c -3.878,0 -5.535,1.223 -5.535,5.083 V 9.618 h -2.398 v 2.927 h 2.398 v 5.114 H 0 V 12.545 H 4.5 V 9.618 H 0 Z"
               style="fill:#231f20;fill-opacity:1;fill-rule:nonzero;stroke:none"
               id="path1100" />
          </g>
          <g
             id="g1102"
             transform="translate(990.2363,376.9961)">
            <path
               d="M 0,0 -6.364,18.077 H -2.96 L 1.658,4.438 6.157,18.077 H 9.562 L 2.013,-3.924 c -1.095,-3.184 -2.575,-3.86 -5.032,-3.86 -0.444,0 -0.977,0 -1.362,0.032 v 2.896 h 1.095 c 1.066,0 1.806,0.385 2.339,2.026 z"
               style="fill:#231f20;fill-opacity:1;fill-rule:nonzero;stroke:none"
               id="path1104" />
          </g>
        </g>
      </g>
      <g
         id="g1106">
        <g
           id="g1108">
          <g
             id="g1114">
            <g
               id="g1116">
              <path
                 d="m 177.051,421.106 c 0,-9.623 8.066,-17.676 17.983,-17.95 v 0 l 0.858,-0.017 v 6.702 l -0.811,0.028 c -6.257,0.25 -11.159,5.186 -11.159,11.237 v 0 c 0,5.018 3.374,9.258 8.092,10.708 v 0 6.908 c -8.482,-1.633 -14.963,-8.991 -14.963,-17.616"
                 style="fill:url(#linearGradient1124);stroke:none"
                 id="path1126" />
            </g>
          </g>
        </g>
      </g>
      <g
         id="g1128">
        <g
           id="g1130">
          <g
             id="g1136">
            <g
               id="g1138">
              <path
                 d="m 222.539,469.999 -19.774,-19.162 v 6.443 c 0,9.905 -8.307,17.963 -18.518,17.963 v 0 c -10.21,0 -18.517,-8.058 -18.517,-17.963 v 0 -72.328 c 0,-9.906 8.307,-17.964 18.517,-17.964 v 0 c 10.211,0 18.518,8.058 18.518,17.964 v 0 18.67 c 3.223,0.793 6.156,2.405 8.496,4.671 v 0 l 8.347,8.091 24.26,-23.506 c 2.194,-2.127 3.402,-4.953 3.402,-7.956 v 0 c 0,-3.003 -1.208,-5.828 -3.402,-7.955 v 0 c -2.201,-2.132 -5.13,-3.306 -8.243,-3.306 v 0 c -3.116,0 -6.043,1.174 -8.244,3.306 v 0 l -15.821,15.329 -4.874,-4.721 15.853,-15.363 c 3.491,-3.382 8.139,-5.246 13.086,-5.246 v 0 c 4.948,0 9.593,1.864 13.084,5.246 v 0 c 3.498,3.389 5.424,7.902 5.424,12.71 v 0 c 0,4.808 -1.926,9.321 -5.424,12.709 v 0 l -24.226,23.475 24.226,23.473 c 3.498,3.39 5.424,7.903 5.424,12.711 v 0 c 0,4.809 -1.926,9.322 -5.424,12.709 v 0 c -3.491,3.383 -8.136,5.246 -13.084,5.246 v 0 c -4.947,0 -9.595,-1.863 -13.086,-5.246 m -11.278,-36.08 c -2.349,2.275 -5.282,3.892 -8.496,4.683 v 0 2.79 l 24.616,23.853 c 2.201,2.134 5.129,3.308 8.244,3.308 v 0 c 3.113,0 6.042,-1.174 8.243,-3.308 v 0 c 2.194,-2.125 3.402,-4.95 3.402,-7.955 v 0 c 0,-3.003 -1.208,-5.83 -3.402,-7.957 v 0 l -24.26,-23.505 z m -38.658,-48.967 v 72.328 c 0,6.211 5.224,11.262 11.644,11.262 v 0 c 6.422,0 11.645,-5.051 11.645,-11.262 v 0 -43.052 h 6.873 v 17.329 c 1.364,-0.558 2.591,-1.362 3.653,-2.392 v 0 l 8.317,-8.059 -8.317,-8.057 c -1.062,-1.033 -2.289,-1.836 -3.653,-2.396 v 0 c -1.672,-0.852 -6.873,-0.812 -6.873,-0.812 v 0 -6.705 -18.184 c 0,-6.212 -5.223,-11.264 -11.645,-11.264 v 0 c -6.42,0 -11.644,5.052 -11.644,11.264"
                 style="fill:url(#linearGradient1146);stroke:none"
                 id="path1148" />
            </g>
          </g>
        </g>
      </g>
    </g>
  </g>
</svg>
