<svg width="163" height="56" viewBox="0 0 163 56" fill="none" xmlns="http://www.w3.org/2000/svg">
<path d="M67.7291 19.1025H64.661V18.7116H65.7287V12.6182H63.5932V13.4675H63.0796V11.7823H63.5932V12.0789H68.7969V11.7823H69.3105V13.4675H68.7969V12.6182H66.6614V18.7116H67.7291V19.1025Z" fill="#141414"/>
<path d="M77.4337 19.1025H74.8927V18.7116H75.6901V15.7862H71.6894V18.7116H72.4868V19.1025H69.9458V18.7116H70.7433V12.4834H69.9458V12.0924H72.4868V12.4834H71.6894V15.3144H75.6901V12.4834H74.8927V12.0924H77.4337V12.4834H76.6228V18.725H77.4337V19.1025Z" fill="#141414"/>
<path d="M83.178 19.1022H78.3257V18.7112H79.1231V12.483H78.3257V12.0921H82.5833V11.7955H83.0698V13.4806H82.5833V12.5774H80.0557V15.3005H82.0697V14.5051L82.5562 14.4917V16.5812L82.0697 16.5947V15.7724H80.0557V18.6303H82.6779V17.7001H83.1645V19.1022H83.178Z" fill="#141414"/>
<path d="M93.7206 12.4834H92.9231V16.5411C92.9231 17.6735 92.5176 18.415 91.6256 18.9003C91.1795 19.1295 90.6659 19.2643 90.1388 19.2643C88.5979 19.2643 87.4491 18.2397 87.4491 16.8512V12.4834H86.6516V12.0924H89.1927V12.4834H88.3952V16.5142C88.3952 17.8083 89.1521 18.6442 90.3415 18.6442C91.558 18.6442 92.3825 17.7814 92.3825 16.5007V12.4834H91.585V12.0924H93.7341V12.4834H93.7206Z" fill="#141414"/>
<path d="M100.303 19.2238H99.9652L95.8698 13.6023V18.7116H96.6808V19.1025H94.5182V18.7116H95.3291V12.8878L95.0453 12.4834H94.3154V12.0924H95.8698L99.776 17.4309V12.4834H98.965V12.0924H101.114V12.4834H100.317V19.2238H100.303Z" fill="#141414"/>
<path d="M104.425 19.1025H101.884V18.7116H102.682V12.4834H101.884V12.0924H104.425V12.4834H103.628V18.725H104.425V19.1025Z" fill="#141414"/>
<path d="M108.737 19.2913H108.372L105.682 12.4834H105.047V12.0924H107.696V12.4834H106.696L108.764 17.714L110.818 12.4834H110.116V12.0924H111.94V12.4834H111.413L108.737 19.2913Z" fill="#141414"/>
<path d="M117.441 19.1022H112.589V18.7112H113.387V12.483H112.589V12.0921H116.847V11.7955H117.333V13.4806H116.847V12.5774H114.319V15.3005H116.333V14.5051L116.82 14.4917V16.5812L116.333 16.5947V15.7724H114.319V18.6303H116.941V17.7001H117.428V19.1022H117.441Z" fill="#141414"/>
<path d="M124.632 19.1025H123.726C123.091 19.1025 122.983 19.0351 122.632 18.4689L121.037 15.948H120.199V18.7116H120.996V19.1025H118.455V18.7116H119.253V12.4834H118.455V12.0924H121.429C122.469 12.0924 123.051 12.3755 123.375 13.0361C123.51 13.3192 123.591 13.6427 123.591 13.9797C123.591 15.0178 123.01 15.6783 121.996 15.8266L123.537 18.1858C123.794 18.5768 123.97 18.7116 124.226 18.7116H124.645V19.1025H124.632ZM120.199 15.4627H121.226C122.037 15.4627 122.605 14.8695 122.605 13.9932C122.605 13.0765 122.104 12.5642 121.212 12.5642H120.212V15.4627H120.199Z" fill="#141414"/>
<path d="M125.997 19.2104H125.497V17.2961H125.997V18.1319C126.646 18.5633 126.93 18.6711 127.403 18.6711C128.254 18.6711 128.836 18.2262 128.836 17.5522C128.836 16.9455 128.417 16.5007 127.268 15.9075C125.916 15.2065 125.47 14.6673 125.47 13.8045C125.47 12.753 126.362 11.9576 127.579 11.9576C128.106 11.9576 128.511 12.052 128.849 12.2542V11.8632H129.336V13.6832H128.849V12.9282C128.308 12.5642 128.038 12.4564 127.606 12.4564C126.876 12.4564 126.416 12.8878 126.416 13.5483C126.416 14.0876 126.727 14.3976 128.065 15.1661C129.403 15.9345 129.782 16.4063 129.782 17.2691C129.782 18.3745 128.863 19.2238 127.66 19.2238C126.984 19.2238 126.551 19.089 126.011 18.7385V19.2104H125.997Z" fill="#141414"/>
<path d="M133.282 19.1025H130.741V18.7116H131.539V12.4834H130.741V12.0924H133.282V12.4834H132.485V18.725H133.282V19.1025Z" fill="#141414"/>
<path d="M138.621 19.1025H135.553V18.7116H136.621V12.6182H134.485V13.4675H133.972V11.7823H134.485V12.0789H139.689V11.7823H140.203V13.4675H139.689V12.6182H137.553V18.7116H138.621V19.1025Z" fill="#141414"/>
<path d="M145.366 19.1025H142.825V18.7116H143.622V15.8671L141.419 12.4699H140.797V12.0789H143.433V12.4699H142.46L144.298 15.2604L146.001 12.4699H145.028V12.0789H147.163V12.4699H146.609L144.555 15.7997V18.7116H145.366V19.1025Z" fill="#141414"/>
<path d="M149.907 15.6109C149.907 13.6157 151.461 11.9576 153.354 11.9576C155.205 11.9576 156.773 13.6157 156.773 15.5974C156.773 17.5792 155.219 19.2508 153.354 19.2508C151.488 19.2508 149.907 17.5926 149.907 15.6109ZM150.975 15.5974C150.975 17.3904 151.975 18.6981 153.367 18.6981C154.732 18.6981 155.732 17.3904 155.732 15.5974C155.732 13.8045 154.746 12.5103 153.381 12.5103C151.975 12.5103 150.975 13.791 150.975 15.5974Z" fill="#141414"/>
<path d="M159.977 19.1022H157.436V18.7112H158.233V12.483H157.436V12.0921H161.693V11.7955H162.18V13.4806H161.693V12.5774H159.166V15.3005H161.18V14.5051L161.666 14.4917V16.5812L161.18 16.5947V15.7724H159.166V18.7112H159.963V19.1022H159.977Z" fill="#141414"/>
<path d="M64.4042 41.845H63.0796V36.8031H64.4042V39.014C66.1208 40.1734 66.8777 40.443 68.1211 40.443C70.3783 40.443 71.8921 39.2702 71.8921 37.5042C71.8921 35.8999 70.7973 34.7271 67.7562 33.1498C64.215 31.3029 62.9985 29.8874 62.9985 27.5822C62.9985 24.8051 65.3639 22.729 68.5401 22.729C69.9458 22.729 70.9866 22.9851 71.8921 23.5109V22.5133H73.1897V27.3125H71.8921V25.3174C70.4594 24.3602 69.7566 24.0771 68.6347 24.0771C66.7155 24.0771 65.4855 25.223 65.4855 26.962C65.4855 28.391 66.2965 29.2134 69.8106 31.2355C73.3248 33.2576 74.3385 34.4844 74.3385 36.7897C74.3385 39.7016 71.9192 41.9529 68.7429 41.9529C66.9723 41.9529 65.8234 41.5889 64.4177 40.6857V41.845H64.4042Z" fill="#141414"/>
<path d="M86.8815 41.6024H80.191V40.5644H82.2995V33.0689L76.4741 24.1041H74.8386V23.066H81.7859V24.1041H79.2314L84.0701 31.4647L88.5439 24.1041H85.9894V23.066H91.6121V24.1041H90.1524L84.7459 32.8937V40.5509H86.8815V41.6024Z" fill="#141414"/>
<path d="M93.0044 41.6024V40.5644H95.1129V24.1041H93.0044V23.066H101.303C106.372 23.066 110.494 27.2182 110.494 32.314C110.494 37.5042 106.439 41.6024 101.263 41.6024H93.0044ZM97.5864 40.2004H100.965C104.817 40.2004 107.75 36.8032 107.71 32.341C107.71 28.0001 104.723 24.495 101.019 24.495H97.5864V40.2004Z" fill="#141414"/>
<path d="M126.727 41.9125H125.862L115.063 27.0834V40.5644H117.198V41.6024H111.521V40.5644H113.657V25.1691L112.9 24.1041H110.954V23.066H115.022L125.321 37.1672V24.1041H123.186V23.066H128.835V24.1041H126.727V41.9125Z" fill="#141414"/>
<path d="M143.541 41.6024H130.741V40.5643H132.863V24.1041H130.755V23.066H141.973V22.2841H143.271V26.7463H142V24.3602H135.337V31.559H140.649V29.456L141.946 29.429V34.9562L140.649 34.9832V32.8262H135.337V40.3486H142.257V37.8816H143.555V41.6024H143.541Z" fill="#141414"/>
<path d="M157.463 41.6024H150.772V40.5644H152.881V33.0689L147.055 24.1041H145.433V23.066H152.381V24.1041H149.826L154.665 31.4647L159.139 24.1041H156.584V23.066H162.207V24.1041H160.747L155.341 32.8937V40.5509H157.476V41.6024H157.463Z" fill="#141414"/>
<path d="M27.8026 36.3987H31.9521V35.765H27.8026V36.3987ZM27.8026 38.1107H31.9521V37.4906H27.8026V38.1107ZM27.8026 34.6866H31.9521V34.053H27.8026V34.6866ZM24.8156 35.765H20.6661V36.3987H24.8156V35.765ZM24.8156 37.4906H20.6661V38.1107H24.8156V37.4906ZM24.8156 34.053H20.6661V34.6866H24.8156V34.053ZM31.4114 23.066C29.7219 22.9851 28.0054 22.9312 26.3159 22.9312C24.6264 22.9312 22.9098 22.9851 21.2203 23.066V31.4242H5.17667C5.83896 35.4415 7.48793 39.1892 9.83973 42.3168C10.1506 41.8719 10.6777 41.5753 11.2724 41.5753H21.2203V50.2841C22.8422 50.7289 24.5453 50.9716 26.3024 50.9716V51.039H26.3159V50.9716C28.073 50.9716 29.776 50.7289 31.4114 50.2706V41.5753H41.3728C41.954 41.5753 42.4811 41.8584 42.792 42.3033C45.1438 39.1757 46.7793 35.4145 47.4551 31.4107H31.4114V23.066ZM23.3694 25.6678L25.5319 26.6923L26.3024 24.441L27.1133 26.6923L29.2489 25.6543L28.2216 27.8113L30.4788 28.5797L28.2216 29.3885L29.2624 31.5185L27.0863 30.494L26.3159 32.7318L25.5049 30.4805L23.3694 31.5185L24.3966 29.3481L22.1394 28.5797L24.4101 27.7708L23.3694 25.6678ZM15.7868 39.4858L13.6513 38.4478L12.8403 40.6991L12.0699 38.4612L9.89379 39.4858L10.9481 37.3558L8.67734 36.5469L10.9345 35.7785L9.90731 33.6081L12.0293 34.6461L12.8403 32.3948L13.6107 34.6326L15.7868 33.6081L14.7461 35.7381L17.0033 36.5469L14.7461 37.3154L15.7868 39.4858ZM19.2199 39.324H18.2738V38.6365H19.2199V39.324ZM19.2199 37.4771H18.2738V36.7896H19.2199V37.4771ZM19.2199 35.6302H18.2738V34.9427H19.2199V35.6302ZM19.2199 33.7968H18.2738V33.1093H19.2199V33.7968ZM19.7335 39.324V32.6779H23.9235C24.0046 32.6644 24.0992 32.6779 24.1803 32.6779C25.14 32.6779 25.8834 33.4194 25.8834 34.3495V39.9172C25.5725 39.5532 25.0994 39.3105 24.5723 39.3105C24.5047 39.324 21.0446 39.324 19.7335 39.324ZM29.2624 47.9923L27.0863 46.9677L26.3159 49.2191L25.5049 46.9543L23.3694 47.9923L24.3966 45.8219L22.1394 45.0534L24.3966 44.2446L23.3558 42.1146L25.5319 43.1391L26.3024 40.9013L27.1133 43.1526L29.2489 42.1146L28.2216 44.285L30.4788 45.0534L28.2216 45.8623L29.2624 47.9923ZM36.8314 33.6081L39.0075 34.6326L39.7779 32.3948L40.5889 34.6461L42.7244 33.6081L41.6972 35.7785L43.9544 36.5469L41.6837 37.3558L42.7244 39.4858L40.5483 38.4612L39.7779 40.6991L38.967 38.4478L36.8314 39.4858L37.8586 37.3154L35.6014 36.5469L37.8586 35.7381L36.8314 33.6081ZM33.3983 33.0958H34.3444V33.7833H33.3983V33.0958ZM33.3983 34.9427H34.3444V35.6302H33.3983V34.9427ZM33.3983 36.7896H34.3444V37.4771H33.3983V36.7896ZM33.3983 38.6365H34.3444V39.324H33.3983V38.6365ZM32.8982 32.6779V39.324C31.5872 39.324 28.1135 39.324 28.0459 39.324C27.5188 39.324 27.0593 39.5532 26.7349 39.9307V34.363C26.7349 33.4194 27.4783 32.6914 28.4379 32.6914C28.519 32.6914 28.6136 32.6779 28.6947 32.6914H32.8982V32.6779ZM41.1701 4.32739C37.0341 3.45113 31.5736 2.58835 26.3159 2.58835C18.4225 2.58835 10.083 4.54309 6.42015 5.5272C5.69028 5.71594 5.14964 5.87771 4.82525 5.97207V23.8748C7.20409 23.4974 17.0033 22.0144 26.3024 22.001C35.6014 22.001 45.4006 23.4839 47.7795 23.8748V5.97207C47.4551 5.87771 46.9144 5.72942 46.1846 5.5272C44.9816 5.20366 43.238 4.77227 41.1701 4.32739ZM18.7333 6.21473C19.0577 6.13385 18.3549 5.60809 18.8144 5.63505C19.1118 5.64853 20.0985 5.64853 20.8418 6.01252C20.977 6.06644 21.0716 5.8103 21.3555 5.62157C21.3825 5.60809 21.4501 5.58113 21.4906 5.62157C21.788 5.79682 21.8826 6.06644 22.0313 5.99904C22.7747 5.64853 23.7478 5.64853 24.0317 5.62157C24.5047 5.59461 23.7884 6.13385 24.1127 6.20125C25.7887 6.60568 27.0322 8.02118 27.0322 9.70631C27.0322 10.1916 26.9106 10.65 26.7484 11.0814C26.6538 11.3105 26.424 10.6635 26.3294 11.0409C26.1672 11.7285 25.9915 12.2407 25.6266 12.9283C25.2751 13.5753 24.7075 12.2273 24.5317 12.6047C24.2074 13.2788 23.4505 13.5214 22.9233 13.6023C22.8557 13.6023 22.8017 13.6023 22.8828 13.5349C22.9098 13.5079 23.045 13.3866 23.072 13.144C23.072 13.117 23.0585 13.0766 23.1126 13.0496C23.518 12.8609 23.8154 12.4834 23.8965 12.0385C24.0181 11.6206 24.1938 11.0274 24.3966 10.6635C24.8561 9.8546 24.302 8.88397 24.4371 8.66827C24.748 8.46606 24.9507 8.11555 24.9507 7.71112C24.9507 7.07752 24.4371 6.56524 23.8019 6.56524C23.464 6.56524 23.1531 6.71353 22.9504 6.95619L22.9233 6.98315C22.8152 7.091 22.7206 7.21233 22.626 7.33365C22.5178 7.46846 22.5449 7.71112 22.7206 7.75156C23.5045 7.95378 24.0046 9.70631 23.6937 10.2725C23.5586 10.5286 23.1261 11.4723 23.1261 11.7419C23.1261 12.0924 22.8422 12.3755 22.4908 12.3755C22.2205 12.3755 21.9907 12.2138 21.8961 11.9576L21.9096 11.9307C22.1259 11.7959 22.5989 11.5128 22.5989 11.2162L22.5043 10.259C22.8963 10.2186 23.072 10.0029 23.1261 9.6389C23.1666 9.61194 23.1937 9.58498 23.2207 9.55802C23.3558 9.43669 23.4369 9.11314 23.1531 9.16707C22.7611 9.23447 22.3151 9.22099 21.8691 9.34232C21.815 9.3558 21.7745 9.40973 21.7609 9.46365C21.7474 9.54453 21.9907 10.7039 22.0583 10.96C22.0583 10.987 22.0448 11.0005 22.0313 11.0005C21.8556 10.987 21.5447 10.9735 21.4636 10.9735C21.3825 10.9735 21.0851 10.987 20.8959 11.0005C20.8824 11.0005 20.8554 10.9735 20.8554 10.96C20.9094 10.6904 21.1662 9.53105 21.1662 9.53105C21.1662 9.47713 21.1662 9.43669 21.1392 9.39624C21.0581 9.2884 19.9228 9.19403 19.7741 9.16707C19.7065 9.15359 19.6389 9.18055 19.5984 9.23447C19.4902 9.39625 19.6795 9.5715 19.8146 9.6389C19.8687 9.98941 20.0444 10.2051 20.4228 10.2455L20.4364 10.259C20.4228 10.3264 20.3282 11.2162 20.3282 11.2162C20.3282 11.5262 20.8013 11.7824 21.0311 11.9172C21.0446 11.9307 21.0581 11.9576 21.0581 11.9711C20.95 12.1868 20.7202 12.3486 20.4769 12.3486C20.1255 12.3486 19.8417 12.0655 19.8417 11.715C19.8417 11.4858 19.4227 10.5017 19.2605 10.2321C18.9226 9.65238 19.4227 7.92682 20.2336 7.7246C20.4093 7.68416 20.5039 7.42802 20.3688 7.29321C20.0309 6.95619 19.6389 6.53828 19.1253 6.53828C18.49 6.53828 17.9899 7.05055 17.9899 7.68416C17.9899 8.41213 18.5441 8.51998 18.5036 8.72219C18.2738 9.39624 18.2738 10.1242 18.5711 10.6365C18.7739 10.987 18.9361 11.5667 19.0712 11.9711C19.1523 12.389 19.3956 12.753 19.7606 12.9552C19.9363 13.0631 19.8552 13.1979 19.9228 13.3462C19.9633 13.4136 20.0174 13.4675 20.0579 13.5079C20.139 13.5619 20.0714 13.5753 20.0174 13.5753C19.4902 13.5079 18.6658 13.2788 18.3279 12.5643C18.1521 12.1868 17.5709 13.5349 17.233 12.8878C16.8681 12.2003 16.7059 11.688 16.5302 11.0005C16.4356 10.623 16.2058 11.2701 16.1112 11.0409C15.949 10.6095 15.8274 10.1647 15.8274 9.66586C15.8274 8.02118 17.0709 6.60568 18.7333 6.21473ZM23.5045 7.38758C23.491 7.3741 23.491 7.30669 23.518 7.29321C23.5991 7.22581 23.7073 7.19884 23.8154 7.19884C24.0992 7.19884 24.329 7.42802 24.329 7.71112C24.329 7.87289 24.2614 8.0077 24.1398 8.10207C24.1127 8.12903 24.0587 8.10207 24.0452 8.07511C23.8965 7.80549 23.7208 7.57631 23.5045 7.38758ZM22.3556 13.1305C22.234 13.454 21.7745 13.3462 21.5312 13.5484C21.5041 13.5753 21.4366 13.5753 21.4095 13.5484C21.1662 13.3462 20.7202 13.4405 20.5715 13.09C20.558 13.0631 20.558 13.0091 20.6256 12.9957C20.95 12.9552 21.2338 12.8069 21.4366 12.5778C21.4501 12.5508 21.5041 12.5373 21.5582 12.5912C21.7474 12.7935 22.0042 12.9552 22.3016 12.9957C22.3286 13.0091 22.3827 13.0361 22.3556 13.1305ZM18.909 8.08859C18.8955 8.10207 18.8415 8.12903 18.8009 8.08859C18.6928 7.99422 18.6117 7.84593 18.6117 7.68416C18.6117 7.40106 18.8415 7.17188 19.1253 7.17188C19.2605 7.17188 19.3821 7.22581 19.4767 7.30669C19.5173 7.33365 19.4902 7.40106 19.4767 7.41454C19.2605 7.63024 19.0712 7.84593 18.909 8.08859ZM14.3947 14.6538C14.0432 14.6538 13.9081 14.7617 13.6513 14.9234C13.4891 15.0313 13.4485 14.7212 13.6378 14.0876C13.7864 13.5888 12.7998 13.3192 12.57 13.5484C12.2321 13.8045 11.3941 14.3168 10.5561 13.4405C10.3939 13.2653 10.9345 13.3192 10.9616 13.1709C11.0156 12.9417 11.2184 12.8069 11.2995 12.726C11.3535 12.6586 11.3535 12.5508 11.2589 12.5104C11.0021 12.3755 10.6507 12.079 10.7453 11.5397C10.7588 11.4588 10.3128 11.4319 10.4615 11.2971C11.2454 10.5826 12.0969 11.0274 12.4348 11.2566C12.4889 11.2836 12.6105 11.2836 12.6241 11.1757C12.6511 10.9466 12.5294 10.7848 13.0025 10.4073C13.0971 10.3264 12.7322 10.0164 12.989 10.0299C14.5974 10.4343 13.8675 12.1059 14.2054 12.4025C14.8272 12.9552 16.3139 13.3866 17.7061 13.6832C17.8278 13.7102 18.2603 13.8584 18.3549 13.9124C19.4902 14.4921 20.1796 14.4381 20.7878 14.1955C20.977 14.1146 20.977 14.3707 20.9094 14.4247C18.6658 16.5681 16.9492 16.0154 16.3545 15.6379C15.9355 15.3683 15.0705 15.3548 14.6785 15.9076C14.6109 15.975 14.4893 16.0154 14.4352 15.8402C14.3136 15.4357 14.4487 15.1661 14.5704 14.8695C14.6515 14.6943 14.4622 14.6538 14.3947 14.6538ZM35.8042 16.6355C35.5068 16.8917 34.9662 17.1883 34.1147 17.1478C33.7497 17.1343 33.574 17.2422 33.4929 17.3365C33.4389 17.4039 33.4118 17.4983 33.3983 17.5118C33.3443 17.687 33.4118 17.8758 33.5064 18.0241C33.6011 18.1589 33.5605 18.2398 33.4253 18.2667C33.2902 18.3072 33.101 18.3072 32.736 18.1319C32.5738 18.051 32.5333 18.1589 32.5063 18.2263C32.4387 18.4015 32.5603 18.6172 32.8036 18.779C32.9253 18.8869 32.8982 18.9947 32.709 19.0621C32.3846 19.17 32.1008 19.0217 31.6277 18.7655C31.3574 18.6172 31.1411 18.5903 30.9519 18.806C30.8438 18.9273 30.8573 19.0351 30.9114 19.1026C31.1006 19.2778 31.2087 19.6418 30.7492 20.2215C30.6005 20.4102 30.4383 19.8844 30.2896 19.9519C29.6679 20.2484 29.1543 19.8575 28.9515 19.6013C28.911 19.5474 28.8164 19.5339 28.7082 19.6013C28.3974 19.817 27.7215 20.1541 27.4647 19.5474C27.4242 19.4531 27.0593 19.6822 27.0593 19.507C27.0728 18.5094 27.9378 18.3207 28.3163 18.2937C28.4244 18.2802 28.4514 18.2263 28.3974 18.1319C28.2487 17.9162 28.073 17.6601 28.1676 17.3635C28.2352 17.1478 27.6675 17.0939 27.8973 16.9726C29.0461 16.4064 29.6814 17.4983 29.8841 17.6062C30.222 17.7949 31.7088 17.3096 31.898 16.5007C31.9386 16.339 31.5466 16.2715 31.1682 16.1772C31.1006 16.1637 31.06 16.0693 31.1817 15.975C32.0873 15.3009 32.8171 14.4247 34.4526 14.2629C34.6553 14.2359 34.7364 14.4112 34.7364 14.4921C34.7634 14.7482 34.831 14.9909 34.9392 15.22C35.1824 15.7188 35.4663 16.0289 35.7501 16.2581C35.9123 16.4198 35.8853 16.5681 35.8042 16.6355ZM42.6704 16.1233C42.819 16.2041 42.819 16.285 42.7109 16.3794C42.6028 16.4738 42.4271 16.5681 42.0351 16.5681C41.8594 16.5681 41.8594 16.676 41.8729 16.7569C41.8999 16.9456 42.1027 17.0804 42.3865 17.1208C42.5352 17.1613 42.5758 17.2691 42.4271 17.4039C42.1838 17.6466 41.8729 17.6466 41.3323 17.6331C40.8187 17.6196 40.4132 18.2263 40.7105 18.4824C40.9133 18.6577 41.3188 19.0351 40.9673 20.0867C40.8592 20.3967 40.6565 19.8036 40.4943 19.8979C40.0753 20.1541 39.6968 19.8305 39.5076 19.6013C39.4265 19.507 39.3454 19.507 39.2913 19.6013C39.1156 19.8979 38.6696 20.4102 37.7775 19.9249C37.5883 19.817 37.1828 20.181 37.1558 20.0597C37.0071 19.3587 37.3721 18.9543 37.6694 18.7386C37.6964 18.7116 37.8181 18.5498 37.6153 18.5633C37.318 18.5498 36.9395 18.4555 36.899 18.078C36.899 17.9971 36.507 18.0241 36.5341 17.9162C36.6287 17.4039 37.7505 17.0265 38.5344 17.5522C39.1967 17.9836 40.0212 16.5007 39.4265 15.8132C38.994 15.3144 36.48 16.7164 35.6285 14.8965C35.2906 14.1685 35.7096 13.5484 35.3717 13.4945C35.0203 13.4405 33.4389 13.1035 31.6818 14.5055C28.7217 16.8782 25.5049 15.584 24.748 15.0583C24.6264 15.0178 24.5182 15.1122 24.5588 15.2335C24.6804 15.5436 24.6264 15.8267 24.4777 16.0424C24.1668 16.5142 23.099 16.986 22.9098 17.04C21.6663 17.4039 21.788 18.3611 21.9231 18.779C21.9637 18.9138 21.9096 18.9812 21.7745 18.9677C21.396 18.9003 20.6256 18.6577 20.3147 17.9162C20.2877 17.8353 20.1931 17.8219 20.0849 17.9027C19.6254 18.2263 19.7876 18.7116 19.8957 18.9273C19.9363 19.0082 19.9092 19.0891 19.8011 19.1026C19.3821 19.1565 19.0712 18.6577 18.7063 18.6981C18.463 18.7251 18.1927 18.9003 18.0305 19.0082C17.9629 19.0486 17.9494 19.17 17.9899 19.3182C18.4495 20.6933 17.6926 20.7472 17.6385 20.7203C17.5845 20.6933 17.6115 20.4641 17.3952 20.4237C16.6383 20.4641 16.4356 19.9788 16.395 19.6148C16.3815 19.4935 16.3275 19.4531 16.2599 19.507C15.976 19.7092 15.2732 20.0867 14.8272 19.5205C14.7596 19.4396 14.5569 19.5205 14.4352 19.5744C14.3406 19.6148 14.3406 19.4665 14.3406 19.4126C14.3947 18.6307 14.9218 18.2667 15.2191 18.1319C15.3273 18.078 15.3408 18.0241 15.2462 17.9567C15.0029 17.7814 14.5839 17.4039 14.719 16.986C14.7461 16.9052 14.3676 16.7569 14.4622 16.6895C15.3273 16.0693 16.4356 17.0939 16.5708 17.2152C16.7194 17.3365 17.5034 17.3635 19.5038 16.2311C20.7743 15.5166 21.4366 14.9234 21.8015 14.4786C21.842 14.4247 21.9367 14.3303 22.0718 14.3303C22.8828 14.3033 23.6802 14.182 24.302 13.6428C24.4101 13.5349 24.5047 13.6023 24.5588 13.6293C25.7076 14.4247 26.2888 12.6721 26.5321 11.8633C26.5592 11.7015 26.5997 11.5667 26.7754 11.5532C30.9924 11.7554 38.9805 11.7285 38.9805 11.7285C38.9805 11.7285 40.0347 11.8093 39.9807 11.1623C39.8996 10.1107 35.5339 10.1377 32.29 10.5826C31.1141 10.7443 29.3975 10.8387 28.3838 10.4478C27.9648 10.286 27.6269 10.0299 27.4377 9.69283C27.235 9.26143 27.289 9.0053 27.3296 8.73568C27.3836 8.54694 27.4783 8.33125 27.6134 8.11555C28.4514 6.83486 30.3707 6.72701 30.9789 6.72701C31.0871 6.72701 31.1682 6.67309 31.1817 6.5922C31.2357 6.29562 31.4655 5.60809 32.2765 5.56765C32.5063 5.55416 32.736 5.47328 32.8847 5.40587C32.9793 5.36543 33.0469 5.39239 33.0199 5.47328C32.9928 5.58113 32.9523 5.71594 32.8306 5.82378C32.263 6.3091 32.3441 6.53828 32.4116 6.5922C32.4522 6.61916 32.5063 6.60568 32.5468 6.56524C34.2633 5.06885 35.2635 6.06644 35.5744 6.38999C35.6285 6.44391 35.642 6.53828 35.5339 6.56524C34.3715 6.82138 33.9119 7.85941 31.5331 7.69764C31.2493 7.68416 29.2894 7.57631 28.6677 8.46606C28.3163 8.97833 28.5595 9.45017 29.6138 9.69283C30.4113 9.86808 32.2765 9.59846 33.155 9.53105C34.0201 9.46365 37.764 8.99182 39.7374 9.55802C40.5619 9.80067 41.7783 10.4612 41.535 11.715C41.3728 12.5104 40.6159 12.8204 40.6159 12.8204C40.6159 12.8204 38.4533 14.3303 42.3325 14.3572C43.5354 14.3572 42.346 15.3548 42.2919 15.6379C42.2919 15.8267 42.4811 16.0154 42.6704 16.1233ZM35.5609 7.75156C35.4393 7.77853 35.2771 7.81897 35.0878 7.9403C34.7364 8.16948 33.3307 8.74916 32.8982 8.06163C32.8982 8.06163 33.8849 8.03467 34.5202 7.46846C34.5202 7.46846 35.2095 7.23929 35.615 7.60327C35.669 7.63024 35.669 7.7246 35.5609 7.75156ZM26.3159 0C13.1241 0 0 3.50506 0 3.50506V21.0034C0 36.7761 11.3265 53.169 26.3159 56C41.8594 52.9668 52.6453 36.7626 52.6453 21.0034V3.50506C52.6317 3.50506 41.6296 0 26.3159 0ZM48.7256 27.3934C48.7256 40.2407 38.9399 51.8883 26.3159 51.9018H26.3024C13.6783 51.8883 3.89264 40.2272 3.89264 27.3934C3.89264 12.3081 3.89264 5.28454 3.89264 5.28454L4.21703 5.19018C4.24406 5.19018 15.5841 1.67164 26.3024 1.67164C37.0206 1.67164 48.3877 5.19018 48.3877 5.19018L48.7121 5.28454C48.7256 5.28454 48.7256 12.3081 48.7256 27.3934Z" fill="#141414"/>
</svg>